IKResults
version=1
nRows=12
nColumns=24
inDegrees=yes

Units are S.I. units (second, meters, Newtons, ...)
Angles are in degrees.

endheader
time	pelvis_tilt	pelvis_list	pelvis_rotation	pelvis_tx	pelvis_ty	pelvis_tz	hip_flexion_r	hip_adduction_r	hip_rotation_r	knee_angle_r	ankle_angle_r	subtalar_angle_r	mtp_angle_r	hip_flexion_l	hip_adduction_l	hip_rotation_l	knee_angle_l	ankle_angle_l	subtalar_angle_l	mtp_angle_l	lumbar_extension	lumbar_bending	lumbar_rotation
      3.32000000	    -23.54092055	      2.51590873	      0.48648986	     -0.76345419	      1.00064381	     -0.10072323	     36.23636060	     -3.80385384	    -11.34905071	     -7.73966385	     -1.38286359	      6.71553607	      0.00000000	     35.36432648	      0.00331106	    -14.48378148	     -6.85928826	     -4.29967293	      4.39305535	      0.00000000	    -42.75998732	     -4.11290200	     -0.36671086
      3.34000000	    -23.53218847	      2.52003257	      0.48516667	     -0.76408121	      1.00052906	     -0.10073926	     36.28203220	     -3.80707767	    -11.36351775	     -7.75683704	     -1.39143265	      6.70248256	      0.00000000	     35.42039926	      0.00317251	    -14.50504223	     -6.89620233	     -4.31491035	      4.38663295	      0.00000000	    -42.82107345	     -4.11192406	     -0.34870556
      3.36000000	    -23.52026816	      2.52812075	      0.48191210	     -0.76468392	      1.00042069	     -0.10072587	     36.31962860	     -3.81177515	    -11.36725937	     -7.76626409	     -1.40465104	      6.69698492	      0.00000000	     35.46268160	      0.00400845	    -14.50800088	     -6.91798725	     -4.33571744	      4.38915240	      0.00000000	    -42.87361867	     -4.12301853	     -0.33871426
      3.38000000	    -23.60854768	      2.57639615	      0.45201626	     -0.76536715	      1.00014306	     -0.10070520	     36.50723926	     -3.84157649	    -11.27324155	     -7.83253913	     -1.44061351	      6.65084826	      0.00000000	     35.60228559	      0.03113358	    -14.56625209	     -6.91862025	     -4.40475571	      4.33804719	      0.00000000	    -42.80366545	     -4.18789066	     -0.33720787
      3.40000000	    -23.58392745	      2.57113953	      0.46253061	     -0.76592487	      1.00005751	     -0.10075376	     36.54427475	     -3.85184702	    -11.26483986	     -7.87577744	     -1.45796571	      6.65035504	      0.00000000	     35.61648104	      0.03612233	    -14.56648191	     -6.91487226	     -4.41088904	      4.33707753	      0.00000000	    -42.84693638	     -4.17486373	     -0.33758923
      3.42000000	    -23.55319388	      2.59324345	      0.46497616	     -0.76649338	      0.99999420	     -0.10077587	     36.59683235	     -3.88029150	    -11.25957264	     -7.95176983	     -1.47602147	      6.62755273	      0.00000000	     35.62027258	      0.06074363	    -14.55959121	     -6.90515896	     -4.45747124	      4.31443464	      0.00000000	    -42.89212476	     -4.19623998	     -0.37601083
      3.44000000	    -23.51833660	      2.60405869	      0.47486889	     -0.76703593	      0.99994950	     -0.10083500	     36.63847818	     -3.90403758	    -11.23760286	     -8.02422024	     -1.49921190	      6.61236858	      0.00000000	     35.61808992	      0.08142613	    -14.54993443	     -6.89575133	     -4.49414927	      4.30153984	      0.00000000	    -42.93289329	     -4.19931621	     -0.41550869
      3.46000000	    -23.48050936	      2.64436449	      0.49663912	     -0.76755455	      0.99992000	     -0.10092140	     36.66868544	     -3.95867966	    -11.20055916	     -8.08428391	     -1.50276923	      6.55727852	      0.00000000	     35.60500783	      0.14092279	    -14.54977033	     -6.87150095	     -4.55827844	      4.24690084	      0.00000000	    -42.97066778	     -4.21963927	     -0.50732862
      3.48000000	    -23.44152148	      2.64449848	      0.50014447	     -0.76810583	      0.99989219	     -0.10097937	     36.69306279	     -3.96949423	    -11.18724953	     -8.13266306	     -1.52186970	      6.55752051	      0.00000000	     35.61307545	      0.14441797	    -14.53441864	     -6.89122675	     -4.57716472	      4.24824354	      0.00000000	    -43.00329929	     -4.21736095	     -0.52076154
      3.50000000	    -23.39473677	      2.66979043	      0.51704603	     -0.76863861	      0.99987684	     -0.10106258	     36.70410319	     -4.01241978	    -11.20069095	     -8.17505392	     -1.51834716	      6.54272343	      0.00000000	     35.60738766	      0.18157561	    -14.51860466	     -6.90059608	     -4.61380234	      4.20957451	      0.00000000	    -43.04062706	     -4.22254579	     -0.59592110
      3.52000000	    -23.35953314	      2.67253054	      0.51608908	     -0.76916887	      0.99984132	     -0.10108355	     36.71785936	     -4.02077908	    -11.19914325	     -8.19742530	     -1.53111317	      6.55821088	      0.00000000	     35.61302638	      0.18117311	    -14.49884199	     -6.91218683	     -4.63599361	      4.20974104	      0.00000000	    -43.06047981	     -4.22307419	     -0.60361583
      3.54000000	    -23.29190835	      2.68302739	      0.54914451	     -0.76960036	      0.99987639	     -0.10120758	     36.68006216	     -4.06856983	    -11.31624442	     -8.21050120	     -1.51271128	      6.69255657	      0.00000000	     35.55280448	      0.22495844	    -14.45779185	     -6.86221949	     -4.71657656	      4.13529228	      0.00000000	    -43.11286556	     -4.19614954	     -0.65250987
